<svg width="2129" height="2481" xmlns="http://www.w3.org/2000/svg" fill-rule="evenodd" clip-rule="evenodd" stroke-linejoin="round" stroke-miterlimit="2"><path d="M645.239 611.15l-43.51 40.23c20.258 65.834 44.65 20.999 50.637 111.004 3.563 53.535 18.526 84.516-25.452 120.369-135.942 110.827-28.096 144.602-23.76 214.756l-73.434 67.578c-2.521 76.887 26.661 86.186-46.546 133.1-23.755 15.225-78.292 84.904-85.969 111.858l59.652 44.558c-2.22 4.733-19.336 224.012-19.414 260.72-.115 53.338-16.612 243.333 45.862 236.875l19.164-525.491c69.153-10.467 51.542 11.259 115.49-22.88 104.968-56.038 251.967 63.745 361.35 3.606 3.451-59.735-66.3-42.337-114.136-41.848-70.599.721-78.062-12.185-138.534-28.126-81.462-21.478-202.794 73.704-246.159 49.16 1.873-65.595 105.954-38.121 107.823-151.479 1.757-106.839 98.778-91.277 79.514-168.242-11.376-37.109-66.01-34.274-43.877-92.669 10.662-28.137 54.038-50.834 71.003-78.011 25.824-41.366 13.271-82.912 11.262-119.318-6.641-120.462 3.49-34.91-32.098-107.937l41.897-70.323-48.846-51.54 44.812-47.308 73.135 58.111c.018 58.167-55.106 4.992 3.795 118.319 49.527 95.299-14.087 67.864 8.799 128.44 12.815 33.917 32.542 116.028 47.729 132.245 34.98 37.363 76.454 37.446 74.341 103.87l-63.312 29.743 96.858 254.853 85.296 51.707c-5.283 85.184-58.781 160.825 25.955 244.714 61.648 61.035-14.317 203.146 38.771 271.798 22.577 16.405 59.211-.937 128.419 68.259 17.671 17.669 89.319 114.034 115.028 85.81 31.725-34.825-65.12-37.635 93.18-90.796 23.52-7.898 158.002-44.282 159.09-45.307 5.667-15.474-48.105-155.388 13.262-169.7 17.213 12.999 30.388 141.345 68.546 161.972 57.137 30.888 291.088-96.304 349.006-33.893 35.205 37.934 43.639 143.496 86.524 130.519 35.205-24.466-36.628-108.089-52.942-158.372-23.21-71.544-100.07-36.475-163.751-18.977-296.769 81.541-153.678-18.778-279.607-136.493 15.957-45.387 38.919-304.484-36.508-218.775-19.002 21.594.897 101.915.305 146.16-1.216 90.693-14.63 62.127-61.885 108.663l18.486 156.018c-77.439 23.736-123.742 46.533-193.643 75.095-66.944 27.35-100.263-45.533-162.433-87.321-82.092-55.18-48.186-95.34-54.279-203.478-6.267-111.171-80.254-96.807-61.192-206.613l58.846-59.427c-50.748-53.705-62.822-50.483-99.777-85.283-.898-.843-59.036-104.885-63.372-114.887-64.63-149.119 70.399-151.754-37.066-252.15C812.752 837.351 887 757.859 862.478 702.039c-40.128-91.343-44.602-28.388-21.817-125.947 19.756-84.593-53.769-76.739-70.505-98.331-18.501-38.437.537-90.881-1.912-135.254-4.604-83.38-42.546-63.409-38.534-115.765l67.039-80.645-14.16-15.81-75.155 34.305c-20.513-49.834 28.984 3.113 29.998-99.632.37-37.627-9.073-61.403-19.675-64.96h-5.546c-7.694 2.582-15.212 16.097-19.365 42.908-25.618 165.28-39.218 26.026.696 196.108 11.957 50.955 18.611 186.621-10.928 229.885-20.445 29.946-58.141 27.512-72.299 54.985-19.114 37.096 24.502 52.89 34.924 87.264" fill="#fff"/><path d="M521.419 1627.73c26.218 33.638 19.448 13.696 58.741 24.097 13.912 74.951 5.875 359.89 30.388 395.042l28.644-1.146c14.627-35.757 1.622-173.716 3.088-202.445 3.469-67.875-20.241-146.517-3.819-215.812 61.794-42.258 130.777 8.417 207.759 19.836 28.329 4.204 99.199 10.341 122.057 16.944 27.17 7.852 24.887 24.455 46.675 18.362 14.7-4.11 24.822-28.935 20.92-45.036-9.258-38.2-73.643-26.042-104.085-28.72-38.798-3.414-199.343-27.954-216.88-61.985-17.686-34.33 6.293-87.436-15.023-129.609l-35.244-3.945c-40.621 92.733 47.202 101.468-13.041 149.333-43.451 34.523-110.289 5.976-130.18 65.084m-270.534 682.74c21.65-50.478-43.921-71.899 25.339-103.56 32.5-14.855 70.468-29.303 102.062-45.018 40.521-20.156 147.379-108.875 118.115-159.019-36.398 13.864-49.168 49.312-73.582 75.321-98.268 104.686-263.543 66.784-223.439 202.755-43.303 28.776-24.076 14.25-55.018 49.244-22.044 24.931-182.95 65.023-135.731 150.1 23.575.964 30.013-39.656 68.453-61.182 57.156-32.007 53.895-19.829 104.171-36.677l9.707-45.203 59.923-26.762v.001z" fill="#fff"/><path d="M400.027 2261.84a14 14 0 00-1.175 2.854c-.261.932-.392 1.771-.392 2.517 0 4.252 1.772 11.022 5.316 20.31 3.543 9.287 5.949 16.43 7.217 21.428 1.343 4.774 2.331 9.418 2.965 13.931.634 4.514.951 8.971.951 13.372 0 1.492-.018 2.63-.056 3.413a27.622 27.622 0 01-.167 2.07c2.984-14.248 6.34-27.21 10.07-38.884 3.73-11.675 7.572-21.242 11.526-28.702 2.387-4.774 5.334-8.075 8.84-9.903 3.506-1.828 9.772-2.742 18.799-2.742 6.49 0 11.376.019 14.658.056 3.283.038 6.341.131 9.176.28-2.238 2.164-3.823 4.383-4.756 6.658-.932 2.275-1.399 4.98-1.399 8.113 0 2.611 1.492 13.241 4.476 31.891 2.984 18.649 5.371 36.143 7.162 52.48.373 2.76.783 6.564 1.231 11.413 2.238 21.41 7.497 32.115 15.777 32.115h2.35c-3.208 10.294-6.08 16.654-8.616 19.078-2.536 2.425-6.639 3.637-12.309 3.637h-40.507c1.94-3.058 3.339-6.583 4.196-10.574.858-3.991 1.287-9.157 1.287-15.498 0-16.785-1.622-37.598-4.867-62.439s-4.905-41.328-4.98-49.459c-7.385 33.122-15.069 58.15-23.051 75.084-7.982 16.933-17.269 28.198-27.862 33.793a60.838 60.838 0 001.007-5.763c.224-1.828.336-3.637.336-5.427 0-6.639-3.283-18.501-9.847-35.584-1.94-4.849-3.395-8.578-4.364-11.189-3.507-9.624-6.435-18.781-8.784-27.471-2.35-8.691-3.898-16.281-4.644-22.772-1.268 15.89-3.283 34.969-6.043 57.236-2.76 22.268-4.14 36.423-4.14 42.465 0 5.968 1.1 9.959 3.301 11.973 2.201 2.015 6.36 3.059 12.477 3.134-3.283 9.399-6.565 15.497-9.847 18.295-3.283 2.797-8.915 4.196-16.897 4.196h-19.47c3.133-8.355 6.229-24.319 9.287-47.892l1.679-13.428a1425.08 1425.08 0 017.217-46.493c2.723-15.853 4.085-24.376 4.085-25.569 0-3.655-.896-6.136-2.686-7.441-1.79-1.306-5.483-2.033-11.078-2.182 2.76-8.952 5.819-14.939 9.176-17.96 3.357-3.021 8.69-4.532 16.001-4.532l37.374.112zm171.915 89.74c5.968-2.835 10.668-6.359 14.1-10.574 3.431-4.215 5.147-8.486 5.147-12.812 0-4.029-1.268-7.367-3.805-10.015-2.536-2.649-5.744-3.973-9.623-3.973-6.49 0-11.824 3.301-16.001 9.903-4.178 6.602-6.266 15.162-6.266 25.681 0 1.268.055 2.704.167 4.308.112 1.604.317 3.264.616 4.979l15.665-7.497zm56.397-34.8c-2.238 4.849-3.693 10.593-4.364 17.232a227.315 227.315 0 00-.448 3.245c-1.268 6.117-3.58 11.097-6.937 14.939-3.357 3.841-9.139 7.851-17.344 12.029l-37.374 18.798c3.207 8.057 7.348 14.081 12.42 18.072 5.073 3.991 11.116 5.986 18.128 5.986 3.506 0 8.112-.764 13.819-2.293 5.707-1.53 9.642-2.294 11.805-2.294 3.954 0 8.206 3.394 12.757 10.182.224.373.41.634.559.784-8.728 5.52-17.381 9.66-25.96 12.42s-17.12 4.141-25.625 4.141c-18.724 0-33.905-6.267-45.542-18.799-11.637-12.533-17.456-28.982-17.456-49.347 0-9.773 1.436-18.799 4.308-27.079 2.872-8.281 7.143-15.741 12.812-22.38 5.521-6.341 12.011-11.171 19.47-14.491 7.46-3.319 15.48-4.979 24.058-4.979 13.204 0 29.057 7.087 47.557 21.26a480.924 480.924 0 013.357 2.574zm97.839-24.05c0 .522.037 1.268.112 2.238.075.97.112 1.678.112 2.126 0 7.982-1.399 14.174-4.196 18.575-2.798 4.401-6.733 6.602-11.805 6.602-3.805 0-8.747-1.306-14.827-3.916-6.08-2.611-10.239-3.917-12.476-3.917-1.791 0-3.264.597-4.42 1.79-1.157 1.194-1.735 2.686-1.735 4.476 0 2.91 5.147 8.728 15.442 17.456.597.523 1.044.896 1.343 1.119 1.044.896 2.685 2.276 4.923 4.141 11.115 9.101 18.911 16.635 23.387 22.603a38.385 38.385 0 016.21 11.861c1.38 4.327 2.07 9.101 2.07 14.323 0 11.488-4.14 20.701-12.42 27.639-8.281 6.937-19.359 10.406-33.234 10.406-9.026 0-17.754-1.883-26.184-5.651-8.43-3.767-16.262-9.306-23.499-16.616 1.492-4.775 4.122-8.952 7.889-12.533 3.767-3.581 10.314-7.795 19.638-12.644a39.1 39.1 0 00-.727 3.636 24.189 24.189 0 00-.28 3.637c0 5.744 1.791 10.462 5.371 14.155 3.581 3.693 8.057 5.539 13.428 5.539 4.103 0 7.497-1.156 10.183-3.469 2.685-2.312 4.028-5.184 4.028-8.616 0-2.611-.783-5.185-2.35-7.721-1.566-2.536-4.215-5.483-7.945-8.84a831.672 831.672 0 00-7.944-6.826c-14.099-12.159-22.902-21.26-26.408-27.303a43.391 43.391 0 01-4.252-10.462 44.084 44.084 0 01-1.455-11.246c0-9.698 3.115-17.437 9.344-23.219 6.229-5.781 14.565-8.672 25.009-8.672 4.028 0 9.362.616 16.001 1.847 6.639 1.231 11.227 1.846 13.764 1.846a37.23 37.23 0 009.063-1.119c2.984-.746 5.931-1.828 8.84-3.245zm67.963-37.15v40.059h10.518c3.655 0 6.938-.354 9.847-1.063a27.826 27.826 0 008.28-3.525c-2.76 11.414-5.52 18.743-8.28 21.988-2.76 3.245-7.05 4.868-12.868 4.868h-7.497v71.503c0 6.191.746 10.649 2.238 13.371 1.492 2.723 3.953 4.085 7.385 4.085 1.716 0 3.804-.616 6.266-1.847 2.462-1.231 4.103-1.846 4.924-1.846 2.312 0 5.259 2.686 8.84 8.057.82 1.268 1.454 2.238 1.902 2.909-6.789 5.446-13.241 9.455-19.359 12.029-6.117 2.574-12.159 3.861-18.127 3.861-11.414 0-19.731-3.32-24.953-9.959-5.222-6.64-7.833-17.233-7.833-31.779v-70.384h-5.483c-1.865 0-3.972.336-6.322 1.007-2.35.671-4.905 1.641-7.665 2.909 2.014-10.443 4.364-17.418 7.049-20.925 2.686-3.506 6.677-5.259 11.973-5.259h2.462v-11.637c0-5.893.578-9.922 1.735-12.085 1.156-2.163 3.412-4.103 6.769-5.819.299-.149 1.231-.41 2.798-.783 8.952-2.163 17.419-5.408 25.401-9.735zm92.468 59.86c-6.117 0-10.668 3.767-13.652 11.302-2.984 7.534-4.476 19.097-4.476 34.688 0 15.815 1.474 27.452 4.42 34.912 2.947 7.46 7.516 11.19 13.708 11.19 6.117 0 10.63-3.749 13.539-11.246 2.91-7.497 4.364-19.116 4.364-34.856 0-15.666-1.454-27.247-4.364-34.744-2.909-7.497-7.422-11.246-13.539-11.246zm-.224-22.491c18.351 0 32.749 6.08 43.192 18.239 10.444 12.16 15.666 28.907 15.666 50.242 0 21.41-5.222 38.195-15.666 50.354-10.443 12.16-24.841 18.24-43.192 18.24-18.277 0-32.618-6.08-43.025-18.24-10.406-12.159-15.61-28.944-15.61-50.354 0-21.335 5.204-38.082 15.61-50.242 10.407-12.159 24.748-18.239 43.025-18.239zm204.105 68.031v24.953c0 7.012 1.007 11.712 3.021 14.099 2.014 2.387 5.968 3.879 11.861 4.476-3.058 10.294-5.893 16.654-8.504 19.078-2.611 2.425-8.094 3.637-16.449 3.637h-38.045c1.94-4.476 3.376-8.84 4.308-13.092a59.357 59.357 0 001.399-12.756v-95.785c0-8.802-.858-14.192-2.574-16.169-1.716-1.977-5.035-3.115-9.959-3.413 2.089-6.565 4.047-11.395 5.875-14.491 1.828-3.096 3.972-5.203 6.434-6.322 3.879-1.641 9.623-2.853 17.232-3.637 7.609-.783 17.531-1.175 29.765-1.175 22.827 0 40.004 4.439 51.529 13.316 11.525 8.878 17.288 22.081 17.288 39.612 0 16.188-4.774 29.243-14.323 39.164-9.548 9.922-21.969 14.883-37.262 14.883-4.55 0-8.597-.522-12.141-1.567-3.543-1.044-6.695-2.648-9.455-4.811zm-.671-43.976c0 10.369 1.063 17.81 3.189 22.323 2.126 4.514 5.576 6.77 10.35 6.77 5.297 0 9.53-2.928 12.701-8.784 3.17-5.856 4.755-13.782 4.755-23.778 0-10.444-1.641-18.743-4.923-24.897-3.283-6.155-7.684-9.232-13.204-9.232-4.7 0-8.019 2.052-9.959 6.154-1.94 4.103-2.909 11.451-2.909 22.044v9.4zm135.441 34.576c5.968-2.835 10.668-6.359 14.1-10.574 3.431-4.215 5.147-8.486 5.147-12.812 0-4.029-1.268-7.367-3.805-10.015-2.536-2.649-5.744-3.973-9.623-3.973-6.49 0-11.824 3.301-16.001 9.903-4.178 6.602-6.266 15.162-6.266 25.681 0 1.268.055 2.704.167 4.308.112 1.604.317 3.264.616 4.979l15.665-7.497zm56.397-34.8c-2.238 4.849-3.693 10.593-4.364 17.232a227.315 227.315 0 00-.448 3.245c-1.268 6.117-3.58 11.097-6.937 14.939-3.357 3.841-9.139 7.851-17.344 12.029l-37.374 18.798c3.207 8.057 7.348 14.081 12.42 18.072 5.073 3.991 11.116 5.986 18.128 5.986 3.506 0 8.112-.764 13.819-2.293 5.707-1.53 9.642-2.294 11.805-2.294 3.954 0 8.206 3.394 12.757 10.182.224.373.41.634.559.784-8.728 5.52-17.381 9.66-25.96 12.42s-17.12 4.141-25.625 4.141c-18.724 0-33.905-6.267-45.542-18.799-11.637-12.533-17.456-28.982-17.456-49.347 0-9.773 1.436-18.799 4.308-27.079 2.872-8.281 7.143-15.741 12.812-22.38 5.521-6.341 12.011-11.171 19.47-14.491 7.46-3.319 15.48-4.979 24.058-4.979 13.204 0 29.057 7.087 47.557 21.26a480.924 480.924 0 013.357 2.574zm30.693-70.38h35.248c-1.79 4.7-3.152 9.306-4.084 13.82-.932 4.513-1.399 8.933-1.399 13.26v114.583c0 6.266.877 10.444 2.63 12.532 1.753 2.089 4.979 3.32 9.679 3.693-3.133 10.369-5.912 16.785-8.336 19.246-2.425 2.462-6.733 3.693-12.925 3.693h-35.024c1.716-5.147 3.022-9.977 3.917-14.491.895-4.513 1.343-8.709 1.343-12.588v-114.807c0-6.416-.84-10.631-2.518-12.645-1.679-2.014-4.868-3.207-9.567-3.58 3.133-10.37 5.874-16.748 8.224-19.135 2.35-2.387 6.621-3.581 12.812-3.581zm71.32 0h35.136c-1.791 4.476-3.115 8.989-3.973 13.54a73.026 73.026 0 00-1.286 13.54v34.8c3.431-5.148 7.683-9.064 12.756-11.75 5.073-2.685 10.817-4.028 17.232-4.028 13.726 0 23.872 3.973 30.436 11.917 6.565 7.945 9.847 20.235 9.847 36.871v46.773c0 6.266.877 10.444 2.63 12.532 1.753 2.089 4.979 3.32 9.679 3.693-3.058 10.369-5.819 16.785-8.28 19.246-2.462 2.462-6.751 3.693-12.869 3.693h-35.135c1.715-4.774 3.021-9.437 3.916-13.987.895-4.551 1.343-8.915 1.343-13.092v-64.789c0-7.236-1.175-12.607-3.525-16.113-2.35-3.506-5.987-5.259-10.91-5.259-6.043 0-10.407 2.237-13.092 6.713-2.686 4.476-4.028 11.862-4.028 22.156v45.207c0 6.415.82 10.611 2.461 12.588 1.642 1.977 4.849 3.227 9.624 3.749-3.208 10.444-6.006 16.859-8.393 19.246-2.387 2.388-6.602 3.581-12.644 3.581h-35.36c1.865-5.446 3.264-10.406 4.196-14.882.933-4.476 1.399-8.542 1.399-12.197v-114.807c0-6.192-.858-10.332-2.574-12.421-1.715-2.089-4.998-3.357-9.847-3.804 3.133-10.22 5.912-16.561 8.337-19.023 2.424-2.462 6.732-3.693 12.924-3.693zm167.89 47.67c-.522 6.266-.914 11.973-1.175 17.12a292.08 292.08 0 00-.391 14.771c3.655-12.16 7.59-20.664 11.805-25.513s9.604-7.273 16.169-7.273c1.567 0 3.525.037 5.875.111 2.349.075 3.897.112 4.643.112 1.567 0 3.078-.074 4.532-.223a36.504 36.504 0 004.196-.672c-1.342 8.654-2.611 15.05-3.804 19.191-1.194 4.14-2.537 7.068-4.028 8.784-2.388 2.76-6.528 4.55-12.421 5.371-1.641.223-2.835.41-3.581.559-6.117 1.119-10.556 3.413-13.316 6.882-2.76 3.469-4.14 8.485-4.14 15.05v39.724c0 6.639.933 10.91 2.798 12.812 1.864 1.902 5.594 3.04 11.189 3.413-3.207 10.518-6.005 16.971-8.392 19.358-2.387 2.388-6.602 3.581-12.644 3.581h-38.493c2.238-4.923 3.897-9.623 4.979-14.099 1.082-4.476 1.623-8.803 1.623-12.98v-67.586c0-5.595-.765-9.139-2.294-10.631-1.53-1.492-4.644-2.312-9.344-2.461 3.283-11.339 6.136-18.184 8.56-20.534 2.425-2.35 6.882-3.525 13.372-3.525 1.94 0 4.159.038 6.658.112 2.499.075 3.973.112 4.42.112 2.536 0 4.905-.13 7.106-.391 2.2-.261 4.233-.653 6.098-1.175zm67.07 1.57h35.248c-1.79 4.7-3.152 9.325-4.084 13.876-.933 4.55-1.399 8.951-1.399 13.204v65.348c0 6.266.877 10.444 2.63 12.532 1.753 2.089 4.979 3.32 9.679 3.693-3.133 10.369-5.912 16.785-8.336 19.246-2.425 2.462-6.733 3.693-12.925 3.693h-35.024c1.716-5.147 3.022-9.977 3.917-14.491.895-4.513 1.343-8.709 1.343-12.588v-65.237c0-6.49-.84-10.76-2.518-12.812-1.679-2.051-4.868-3.301-9.567-3.748 3.133-10.37 5.874-16.748 8.224-19.135 2.35-2.387 6.621-3.581 12.812-3.581zm18.128-49.235h22.603l-6.602 20.142c-1.492 4.7-3.935 8.057-7.329 10.071-3.394 2.014-8.374 3.021-14.938 3.021h-22.604l6.602-20.142c1.567-4.625 4.066-7.963 7.497-10.015 3.432-2.051 8.355-3.077 14.771-3.077zm80.042 47.665a320.501 320.501 0 00-1.566 10.406 237.975 237.975 0 00-1.119 9.959c3.282-7.161 8.019-12.607 14.211-16.337 6.191-3.73 13.651-5.595 22.379-5.595 7.684 0 14.305 1.511 19.862 4.532 5.558 3.021 10.015 7.553 13.372 13.596 3.431-5.819 8.112-10.295 14.043-13.428 5.931-3.133 12.626-4.7 20.086-4.7 12.756 0 22.361 3.786 28.813 11.358 6.453 7.572 9.68 18.892 9.68 33.961v50.242c0 6.341.839 10.537 2.517 12.588 1.679 2.052 4.719 3.264 9.12 3.637-3.133 10.593-5.856 17.064-8.169 19.414-2.312 2.35-6.378 3.525-12.196 3.525h-33.682c1.791-5.371 3.133-10.313 4.029-14.826.895-4.514 1.342-8.598 1.342-12.253v-64.789c0-7.385-1.175-12.794-3.524-16.225-2.35-3.432-5.987-5.147-10.91-5.147-5.894 0-10.09 2.163-12.589 6.49-2.499 4.326-3.748 11.786-3.748 22.379v45.207c0 6.341.82 10.537 2.461 12.588 1.641 2.052 4.7 3.264 9.176 3.637-3.133 10.593-5.856 17.064-8.169 19.414-2.312 2.35-6.378 3.525-12.197 3.525h-33.681c1.716-5.371 3.021-10.369 3.917-14.994.895-4.625 1.342-8.654 1.342-12.085v-64.789c0-7.385-1.156-12.794-3.468-16.225-2.313-3.432-5.968-5.147-10.966-5.147-5.819 0-9.978 2.163-12.477 6.49-2.499 4.326-3.749 11.786-3.749 22.379v45.207c0 6.415.821 10.611 2.462 12.588 1.641 1.977 4.7 3.227 9.176 3.749-3.133 10.518-5.856 16.952-8.169 19.302-2.312 2.35-6.378 3.525-12.197 3.525h-33.681a85.533 85.533 0 003.749-13.484 72.636 72.636 0 001.287-13.595v-67.586c0-5.819-.728-9.419-2.182-10.799-1.455-1.38-4.383-2.144-8.784-2.293 3.058-11.414 5.744-18.277 8.056-20.59 2.313-2.312 6.565-3.469 12.757-3.469 1.939 0 4.103.038 6.49.112 2.387.075 3.73.112 4.028.112 2.536 0 4.868-.13 6.994-.391 2.126-.261 4.084-.653 5.874-1.175zm220.14 21.37c-6.117 0-10.668 3.767-13.652 11.302-2.984 7.534-4.476 19.097-4.476 34.688 0 15.815 1.474 27.452 4.42 34.912 2.947 7.46 7.516 11.19 13.708 11.19 6.117 0 10.63-3.749 13.539-11.246 2.91-7.497 4.364-19.116 4.364-34.856 0-15.666-1.454-27.247-4.364-34.744-2.909-7.497-7.422-11.246-13.539-11.246zm-.224-22.491c18.351 0 32.749 6.08 43.192 18.239 10.444 12.16 15.666 28.907 15.666 50.242 0 21.41-5.222 38.195-15.666 50.354-10.443 12.16-24.841 18.24-43.192 18.24-18.277 0-32.618-6.08-43.025-18.24-10.406-12.159-15.61-28.944-15.61-50.354 0-21.335 5.204-38.082 15.61-50.242 10.407-12.159 24.748-18.239 43.025-18.239zm85.424 2.691l26.52.112a26.828 26.828 0 00-1.175 4.14 21.073 21.073 0 00-.391 4.029c0 3.207 1.976 10.182 5.93 20.925 1.865 5.222 3.32 9.324 4.364 12.308l7.833 22.939c2.014 5.894 3.655 11.395 4.924 16.505 1.268 5.11 2.2 9.978 2.797 14.603.373-3.506 1.119-7.516 2.238-12.029s2.909-10.425 5.371-17.736l7.05-20.813c.895-2.611 1.548-4.886 1.958-6.826.41-1.939.615-3.655.615-5.147 0-3.655-1.137-6.266-3.413-7.833-2.275-1.566-6.546-2.611-12.812-3.133 4.178-9.623 7.814-15.703 10.91-18.239 3.096-2.537 8.225-3.805 15.386-3.805h28.198c-1.79 3.133-3.562 6.621-5.315 10.463-1.753 3.842-3.562 8.224-5.427 13.148l-31.443 81.126c-2.462 6.415-4.346 11.003-5.651 13.763-1.305 2.76-2.48 4.774-3.525 6.043-2.312 2.61-5.52 4.867-9.623 6.769-4.103 1.903-9.511 3.6-16.225 5.092.149-.15.261-.336.336-.56.074-.224.111-.485.111-.783 0-2.909-5.035-17.792-15.106-44.647a4568.026 4568.026 0 00-8.504-22.716 17.118 17.118 0 00-.336-.895c-10.742-28.944-20.701-43.864-29.876-44.759 4.326-10.22 7.87-16.449 10.63-18.687 2.76-2.238 7.311-3.357 13.651-3.357zm-504.37-55.24h17.232l18.799 22.156 18.575-22.156h17.12l-21.484 41.402h-28.646l-21.596-41.402zm-978.397 0h17.232l18.799 22.156 18.575-22.156H611.1l-21.485 41.402h-28.646l-21.596-41.402z" fill="#fff" fill-rule="nonzero"/></svg>